# xmcd
#
# Track frame offsets:
#        182
#        29560
#        65487
#        100402
#        140345
#        175272
#
# Disc length: 2725 seconds
#
# Revision: 2
# Processed by: cddbd v1.5.1PL2 Copyright (c) Steve Scherf et al.
# Submitted via: ExactAudioCopy v0.95b1
#
DISCID=520aa306
DTITLE=Bud Powell - At The Golden Circle Volume4
DYEAR=1962
DGENRE=Jazz
TTITLE0=Moose The Mooche
TTITLE1=Star Eyes
TTITLE2=Blues In The Closet
TTITLE3=Reets And I
TTITLE4=John's Abbey
TTITLE5=That Old Devil Moon
EXTD=
EXTT0=
EXTT1=
EXTT2=
EXTT3=
EXTT4=
EXTT5=
PLAYORDER=
